<svg width="65" height="16" viewBox="0 0 65 16" fill="none" xmlns="http://www.w3.org/2000/svg">
<g clip-path="url(#clip0_746_8684)">
<path d="M3.30662 5.5L5.82662 10.97L8.33662 5.5H10.8666L5.80661 15.91L0.786621 5.5H3.30662Z" fill="white"/>
<path d="M19.2167 5.49998H21.4767V15.24H19.2167V14.22C18.29 15.0867 17.2933 15.52 16.2267 15.52C14.88 15.52 13.7667 15.0333 12.8867 14.06C12.0133 13.0667 11.5767 11.8267 11.5767 10.34C11.5767 8.87999 12.0133 7.66332 12.8867 6.68999C13.76 5.71666 14.8533 5.22998 16.1667 5.22998C17.3 5.22998 18.3167 5.69665 19.2167 6.62998V5.49998ZM13.8767 10.34C13.8767 11.2733 14.1267 12.0333 14.6267 12.62C15.14 13.2133 15.7867 13.51 16.5667 13.51C17.4 13.51 18.0733 13.2233 18.5867 12.65C19.1 12.0566 19.3567 11.3033 19.3567 10.39C19.3567 9.47666 19.1 8.72331 18.5867 8.12999C18.0733 7.54998 17.4067 7.25998 16.5867 7.25998C15.8133 7.25998 15.1667 7.55331 14.6467 8.13998C14.1333 8.73332 13.8767 9.46665 13.8767 10.34Z" fill="white"/>
<path d="M24.3164 5.49998H26.5664V6.36999C26.9797 5.93665 27.3464 5.63999 27.6664 5.47999C27.993 5.31331 28.3798 5.22998 28.8265 5.22998C29.4198 5.22998 30.0397 5.42332 30.6863 5.80999L29.6564 7.86998C29.2297 7.56331 28.813 7.40999 28.4064 7.40999C27.1798 7.40999 26.5664 8.33665 26.5664 10.19V15.24H24.3164V5.49998Z" fill="white"/>
<path d="M34.5466 5.49999V15.24H32.2966V5.49999H34.5466ZM31.9565 1.45C31.9565 1.05667 32.0999 0.716668 32.3866 0.429999C32.6733 0.143333 33.0166 0 33.4166 0C33.8232 0 34.1699 0.143333 34.4566 0.429999C34.7433 0.709999 34.8867 1.05333 34.8867 1.46C34.8867 1.86667 34.7433 2.21333 34.4566 2.50001C34.1767 2.78667 33.8332 2.93001 33.4266 2.93001C33.02 2.93001 32.6733 2.78667 32.3866 2.50001C32.0999 2.21333 31.9565 1.86333 31.9565 1.45Z" fill="white"/>
<path d="M44.5766 5.49998H46.8365V15.24H44.5766V14.22C43.6499 15.0867 42.6532 15.52 41.5865 15.52C40.24 15.52 39.1266 15.0333 38.2466 14.06C37.3732 13.0667 36.9365 11.8267 36.9365 10.34C36.9365 8.87999 37.3732 7.66332 38.2466 6.68999C39.12 5.71666 40.2131 5.22998 41.5266 5.22998C42.6598 5.22998 43.6766 5.69665 44.5766 6.62998V5.49998ZM39.2365 10.34C39.2365 11.2733 39.4865 12.0333 39.9865 12.62C40.4998 13.2133 41.1467 13.51 41.9266 13.51C42.7599 13.51 43.4332 13.2233 43.9464 12.65C44.4599 12.0566 44.7166 11.3033 44.7166 10.39C44.7166 9.47666 44.4599 8.72331 43.9464 8.12999C43.4332 7.54998 42.7665 7.25998 41.9467 7.25998C41.1731 7.25998 40.5265 7.55331 40.0066 8.13998C39.4933 8.73332 39.2365 9.46665 39.2365 10.34Z" fill="white"/>
<path d="M49.6768 5.49998H51.9368V6.39999C52.7234 5.62 53.61 5.22998 54.5967 5.22998C55.7301 5.22998 56.6135 5.58665 57.2467 6.29998C57.7935 6.90665 58.0667 7.89665 58.0667 9.26998V15.24H55.8067V9.79999C55.8067 8.83999 55.6733 8.17665 55.4067 7.80999C55.1466 7.43666 54.6735 7.24999 53.9867 7.24999C53.2401 7.24999 52.7101 7.49665 52.3968 7.98998C52.09 8.47666 51.9368 9.32666 51.9368 10.54V15.24H49.6768V5.49998Z" fill="white"/>
<path d="M63.2367 7.59999V15.24H60.9869V7.59999H60.0269V5.49998H60.9869V1.92999H63.2367V5.49998H64.9869V7.59999H63.2367Z" fill="white"/>
</g>
<defs>
<clipPath id="clip0_746_8684">
<rect width="64.2133" height="16" fill="white" transform="translate(0.786621)"/>
</clipPath>
</defs>
</svg>
